<svg width="24" height="24" viewBox="0 0 24 24" fill="none" xmlns="http://www.w3.org/2000/svg">
<path d="M6.65571 19.6621C4.0888 19.6621 2 17.5992 2 15.0628C2 12.5268 4.0888 10.4636 6.65571 10.4636C9.22402 10.4636 11.3128 12.5268 11.3128 15.0628C11.3128 17.5992 9.22425 19.6621 6.65571 19.6621ZM6.65571 11.1526C4.47282 11.1526 2.69758 12.9068 2.69758 15.0628C2.69758 17.2189 4.47282 18.9731 6.65571 18.9731C8.83838 18.9731 10.6152 17.2189 10.6152 15.0628C10.6152 12.9068 8.83838 11.1526 6.65571 11.1526Z" fill="black"/>
<path d="M6.65614 17.8594C5.09481 17.8594 3.8248 16.6051 3.8248 15.0627C3.8248 13.5207 5.09458 12.2662 6.65614 12.2662C8.2177 12.2662 9.48749 13.5205 9.48749 15.0627C9.48749 16.6051 8.2177 17.8594 6.65614 17.8594ZM6.65614 12.9553C5.48045 12.9553 4.52261 13.9007 4.52261 15.0627C4.52261 16.2249 5.48045 17.1703 6.65614 17.1703C7.83322 17.1703 8.78967 16.2249 8.78967 15.0627C8.78991 13.9007 7.83345 12.9553 6.65614 12.9553Z" fill="black"/>
<path d="M17.9966 18.2402C17.3043 18.2402 16.743 17.6851 16.743 17.0022C16.743 16.3192 17.3043 15.764 17.9966 15.764C18.6872 15.764 19.2499 16.3192 19.2499 17.0022C19.2499 17.6851 18.6874 18.2402 17.9966 18.2402ZM17.9966 16.4528C17.69 16.4528 17.4408 16.6992 17.4408 17.002C17.4408 17.3046 17.69 17.551 17.9966 17.551C18.3029 17.551 18.5523 17.3046 18.5523 17.002C18.5525 16.6994 18.3029 16.4528 17.9966 16.4528Z" fill="black"/>
<path d="M15.7336 16.7532H12.0508C11.9446 16.7532 11.8424 16.7047 11.7768 16.6204C11.7103 16.5373 11.6869 16.4288 11.7129 16.3258C11.8162 15.9135 11.8684 15.4889 11.8684 15.0626C11.8684 12.1936 9.50586 9.85936 6.60082 9.85936C6.4087 9.85936 6.2518 9.7053 6.2518 9.51484C6.2518 9.32438 6.4087 9.17032 6.60082 9.17032C9.88988 9.17032 12.5657 11.8134 12.5657 15.0629C12.5657 15.3989 12.5372 15.734 12.48 16.0644H15.7336C15.9257 16.0644 16.0824 16.2182 16.0824 16.4087C16.0824 16.5991 15.9257 16.7532 15.7336 16.7532Z" fill="black"/>
<path d="M17.9955 19.6622C16.5104 19.6622 15.3018 18.4684 15.3018 17.0015C15.3018 15.5346 16.5104 14.3417 17.9955 14.3417C19.4806 14.3417 20.6878 15.5346 20.6878 17.0015C20.6878 18.4684 19.4806 19.6622 17.9955 19.6622ZM17.9955 15.0307C16.8947 15.0307 15.9994 15.9148 15.9994 17.0015C15.9994 18.089 16.8947 18.9731 17.9955 18.9731C19.0952 18.9731 19.9902 18.089 19.9902 17.0015C19.9905 15.9148 19.0952 15.0307 17.9955 15.0307Z" fill="black"/>
<path d="M14.5625 11.5832C14.403 11.5832 14.2584 11.4749 14.2232 11.3147L13.1386 6.57406H7.71437V9.51473C7.71437 9.70519 7.5577 9.85925 7.36558 9.85925C7.17206 9.85925 7.01678 9.70519 7.01678 9.51473V6.22977C7.01678 6.03931 7.17206 5.88525 7.36558 5.88525H13.4178C13.5798 5.88525 13.7217 5.99697 13.7571 6.15377L14.9027 11.1627C14.9451 11.3486 14.8278 11.5329 14.6399 11.5745C14.6142 11.5807 14.5882 11.5832 14.5625 11.5832Z" fill="black"/>
<path d="M13.3631 6.57417H7.8562C7.39292 6.57417 7.01678 6.20218 7.01678 5.74526C7.01678 5.28765 7.39292 4.91544 7.8562 4.91544H13.3631C13.8264 4.91544 14.2026 5.28743 14.2026 5.74526C14.2026 6.20195 13.8264 6.57417 13.3631 6.57417ZM7.8562 5.60447C7.77717 5.60447 7.71437 5.66788 7.71437 5.74526C7.71437 5.82263 7.77717 5.88513 7.8562 5.88513H13.3631C13.441 5.88513 13.505 5.82263 13.505 5.74526C13.505 5.66788 13.441 5.60447 13.3631 5.60447H7.8562Z" fill="black"/>
<path d="M21.651 16.7533H20.5054C20.3131 16.7533 20.1564 16.5991 20.1564 16.4086C20.1564 16.2181 20.3131 16.0643 20.5054 16.0643H21.3022V12.6116L14.9107 11.6405V15.0628C14.9107 15.2533 14.7554 15.4075 14.5621 15.4075H12.5426C12.3507 15.4075 12.194 15.2533 12.194 15.0628C12.194 14.8723 12.3507 14.7185 12.5426 14.7185H14.2131V11.239C14.2131 11.1387 14.258 11.0432 14.3357 10.9771C14.4122 10.9118 14.5155 10.8841 14.6149 10.8983L21.7041 11.9756C21.8744 12.0013 21.9996 12.1459 21.9996 12.3163V16.4086C21.9996 16.5991 21.8445 16.7533 21.651 16.7533Z" fill="black"/>
<path d="M17.0966 11.9681C17.079 11.9681 17.0611 11.967 17.0435 11.9642L15.5981 11.744C15.4277 11.7184 15.3023 11.5737 15.3023 11.4036V7.62992C15.3023 7.43946 15.459 7.2854 15.6514 7.2854H17.0968C17.2903 7.2854 17.4456 7.43946 17.4456 7.62992V11.6236C17.4456 11.7239 17.402 11.8193 17.3244 11.8855C17.26 11.9393 17.1798 11.9681 17.0966 11.9681ZM15.9997 11.1081L16.748 11.2219V7.97444H15.9997V11.1081Z" fill="black"/>
<path d="M16.3738 7.97451C16.1803 7.97451 16.025 7.82045 16.025 7.63V5.74533C16.025 5.66452 16.0537 5.58577 16.1068 5.52396L17.295 4.12368C17.4176 3.97694 17.6382 3.95817 17.7854 4.08133C17.9342 4.20311 17.9532 4.42036 17.829 4.56663L16.7226 5.87077V7.63045C16.7226 7.82045 16.5659 7.97451 16.3738 7.97451Z" fill="black"/>
<path d="M21.6506 15.5822C21.6059 15.5822 21.5593 15.5735 21.5143 15.5548L20.2024 15.0028C20.0742 14.9493 19.9899 14.8241 19.9899 14.686V13.4041C19.9899 13.2136 20.1465 13.0596 20.3387 13.0596H21.6506C21.8441 13.0596 21.9994 13.2136 21.9994 13.4041C21.9994 13.5945 21.8441 13.7486 21.6506 13.7486H20.6874V14.4587L21.7883 14.9211C21.9656 14.9957 22.0472 15.1974 21.9723 15.3732C21.9148 15.5035 21.7867 15.5822 21.6506 15.5822Z" fill="black"/>
</svg>
