<svg width="24" height="24" viewBox="0 0 24 24" fill="none" xmlns="http://www.w3.org/2000/svg">
<path fill-rule="evenodd" clip-rule="evenodd" d="M13.7772 8.97557C13.0813 8.59907 12.2924 8.40023 11.4909 8.40023L6.63333 8.40002C5.4965 8.40002 4.42139 8.89571 3.71877 9.74205L3.10018 10.4865C2.84134 10.7984 2.7002 11.184 2.7002 11.5808V13.4326C2.7002 13.9846 3.18025 14.4392 3.76305 14.4392H4.22162C4.54281 15.0872 5.22998 15.5374 6.02118 15.5374C6.73544 15.5374 7.36493 15.1705 7.71691 14.6224H15.5237C15.8757 15.1705 16.5052 15.5374 17.2194 15.5374C18.0105 15.5374 18.6977 15.0873 19.0189 14.4394H20.2373C20.8201 14.4394 21.3002 13.9847 21.3002 13.4328V13.1471C21.3002 11.9903 20.4053 11.0021 19.198 10.8261L17.7961 10.6216L16.7447 10.4681V10.4131H16.4347L13.7772 8.97557ZM13.4256 9.55726L15.007 10.4131H10.6222L10.2944 9.07104H11.4909C12.1692 9.07104 12.8368 9.23861 13.4256 9.55726ZM9.61182 9.07104L9.93962 10.4131H6.5094L6.96985 9.07104H9.61182ZM6.24271 9.09519L5.79055 10.4131H4.06214L4.27514 10.1562C4.76253 9.56875 5.47074 9.19111 6.24271 9.09519ZM16.7303 11.1451H3.50414C3.44176 11.2819 3.40877 11.4301 3.40877 11.5808V12.4262H4.45878C4.82455 11.981 5.38973 11.6942 6.02118 11.6942C7.11747 11.6942 8.01404 12.5587 8.01404 13.6158C8.01404 13.709 8.00707 13.8006 7.99363 13.8903H15.247C15.2335 13.8006 15.2266 13.709 15.2266 13.6158C15.2266 12.5587 16.1231 11.6942 17.2194 11.6942C17.8509 11.6942 18.416 11.981 18.7818 12.4262H20.421C20.1763 11.9376 19.6884 11.5764 19.0901 11.4892L17.6882 11.2848L16.7303 11.1451ZM4.08575 13.1583H3.40877V13.4326C3.40877 13.6218 3.56317 13.7682 3.76305 13.7682H4.03456C4.03043 13.7179 4.02832 13.6671 4.02832 13.6158C4.02832 13.4583 4.04823 13.305 4.08575 13.1583ZM19.2123 13.6158C19.2123 13.4583 19.1924 13.305 19.1548 13.1583H20.5916V13.4328C20.5916 13.622 20.4372 13.7683 20.2373 13.7683H19.206C19.2102 13.718 19.2123 13.6671 19.2123 13.6158ZM18.4876 13.6158C18.4876 13.6675 18.4843 13.7184 18.478 13.7683H18.4659V13.8441C18.3562 14.4131 17.8431 14.8387 17.2194 14.8387C16.6174 14.8387 16.1184 14.4421 15.9858 13.9028V13.8903H15.9828C15.9621 13.8022 15.9512 13.7103 15.9512 13.6158C15.9512 12.9363 16.5147 12.393 17.2194 12.393C17.9241 12.393 18.4876 12.9363 18.4876 13.6158ZM15.5543 11.6927C15.4853 11.5787 15.358 11.5093 15.2212 11.5112H14.8522C14.7153 11.5093 14.588 11.5787 14.519 11.6927C14.45 11.8067 14.45 11.9477 14.519 12.0617C14.588 12.1757 14.7153 12.2451 14.8522 12.2432H15.2212C15.358 12.2451 15.4853 12.1757 15.5543 12.0617C15.6233 11.9477 15.6233 11.8067 15.5543 11.6927ZM4.753 13.6158C4.753 12.9363 5.3165 12.393 6.02118 12.393C6.72585 12.393 7.28936 12.9363 7.28936 13.6158C7.28936 14.2954 6.72585 14.8387 6.02118 14.8387C5.3165 14.8387 4.753 14.2954 4.753 13.6158ZM11.6205 12.2432V11.5112H10.8613V12.2432H11.6205ZM5.73682 13.7073C5.73681 13.8044 5.7768 13.8975 5.84799 13.9661C5.91918 14.0348 6.01573 14.0733 6.11641 14.0733C6.21708 14.0733 6.31364 14.0348 6.38482 13.9661C6.45601 13.8975 6.496 13.8044 6.496 13.7073C6.49599 13.5052 6.32604 13.3413 6.11641 13.3413C5.90677 13.3413 5.73682 13.5052 5.73682 13.7073ZM17.0457 13.9661C16.9746 13.8975 16.9346 13.8044 16.9346 13.7073C16.9346 13.5052 17.1045 13.3413 17.3142 13.3413C17.5238 13.3413 17.6937 13.5052 17.6938 13.7073C17.6938 13.8044 17.6538 13.8975 17.5826 13.9661C17.5114 14.0348 17.4148 14.0733 17.3142 14.0733C17.2135 14.0733 17.1169 14.0348 17.0457 13.9661Z" fill="#2B2B2B"/>
</svg>
