<svg width="24" height="24" viewBox="0 0 24 24" fill="none" xmlns="http://www.w3.org/2000/svg">
<path d="M6.579 12.1196H11.4683C11.539 12.1196 11.6068 12.0915 11.6568 12.0415C11.7068 11.9915 11.7349 11.9236 11.7349 11.8529V9.11135C11.7349 9.04062 11.7068 8.97279 11.6568 8.92278C11.6068 8.87276 11.539 8.84467 11.4683 8.84467H6.579C6.50827 8.84467 6.44044 8.87276 6.39043 8.92278C6.34041 8.97279 6.31232 9.04062 6.31232 9.11135V11.8529C6.31232 11.9236 6.34041 11.9915 6.39043 12.0415C6.44044 12.0915 6.50827 12.1196 6.579 12.1196ZM6.84569 9.37804H11.2016V11.5862H6.84569V9.37804Z" fill="#2B2B2B"/>
<path d="M20.4322 16.1039H18.8854C19.1172 15.831 19.2434 15.484 19.241 15.126V7.51122C19.2405 7.11149 19.0819 6.72818 18.7997 6.44502C18.5176 6.16187 18.1348 6.00188 17.7351 6H8.10596C6.84111 6.00141 5.62844 6.50437 4.73389 7.39859C3.83934 8.29281 3.33593 9.50528 3.33405 10.7701V15.126C3.33452 15.5267 3.49388 15.9108 3.77719 16.1941C4.0605 16.4774 4.44461 16.6368 4.84527 16.6372H5.1084C5.2059 17.0303 5.43219 17.3795 5.75118 17.629C6.07018 17.8785 6.46353 18.0141 6.86853 18.0141C7.27353 18.0141 7.66688 17.8785 7.98588 17.629C8.30488 17.3795 8.53116 17.0303 8.62866 16.6372H17.7351C17.792 16.6372 17.8489 16.6372 17.9129 16.6372C17.9359 16.6399 17.9592 16.6399 17.9822 16.6372H20.4322C20.5029 16.6372 20.5708 16.6091 20.6208 16.5591C20.6708 16.5091 20.6989 16.4413 20.6989 16.3705C20.6989 16.2998 20.6708 16.232 20.6208 16.182C20.5708 16.132 20.5029 16.1039 20.4322 16.1039ZM4.84527 16.1039C4.58593 16.1039 4.33721 16.0008 4.15382 15.8175C3.97044 15.6341 3.86742 15.3854 3.86742 15.126V13.9117H14.062V15.2451C14.062 15.3159 14.0901 15.3837 14.1401 15.4337C14.1901 15.4837 14.2579 15.5118 14.3286 15.5118H17.024C17.0947 15.5118 17.1625 15.4837 17.2125 15.4337C17.2625 15.3837 17.2906 15.3159 17.2906 15.2451V13.9117H18.6845H18.713V15.1296C18.713 15.3889 18.6099 15.6376 18.4266 15.821C18.2432 16.0044 17.9945 16.1074 17.7351 16.1074L4.84527 16.1039ZM17.7351 6.53337C17.9945 6.53337 18.2432 6.6364 18.4266 6.81978C18.6099 7.00316 18.713 7.25188 18.713 7.51122V13.3783H18.6845H17.2906V9.39225C17.2906 8.9641 17.1206 8.55349 16.8178 8.25074C16.5151 7.94799 16.1044 7.77791 15.6763 7.77791C15.2481 7.77791 14.8375 7.94799 14.5348 8.25074C14.232 8.55349 14.062 8.9641 14.062 9.39225V13.3783H3.86742V10.7701C3.86883 9.6466 4.3159 8.56951 5.11052 7.77522C5.90515 6.98093 6.98242 6.53431 8.10596 6.53337H17.7351ZM14.5953 9.39225C14.5953 9.10556 14.7092 8.83061 14.9119 8.62789C15.1147 8.42517 15.3896 8.31128 15.6763 8.31128C15.963 8.31128 16.2379 8.42517 16.4407 8.62789C16.6434 8.83061 16.7573 9.10556 16.7573 9.39225V14.9784H14.5953V9.39225ZM6.86853 17.4817C6.6055 17.4815 6.34891 17.4003 6.13359 17.2492C5.91827 17.0981 5.75463 16.8845 5.66489 16.6372H8.08107C7.99081 16.8859 7.82581 17.1006 7.60872 17.2518C7.39163 17.403 7.13308 17.4833 6.86853 17.4817Z" fill="#2B2B2B"/>
</svg>
