<svg width="24" height="24" viewBox="0 0 24 24" fill="none" xmlns="http://www.w3.org/2000/svg">
<path d="M19.7143 18H4.28571C3.94472 18 3.6177 17.8595 3.37658 17.6095C3.13546 17.3594 3 17.0203 3 16.6667V7.33333C3 6.97971 3.13546 6.64057 3.37658 6.39052C3.6177 6.14048 3.94472 6 4.28571 6H19.7143C20.0553 6 20.3823 6.14048 20.6234 6.39052C20.8645 6.64057 21 6.97971 21 7.33333V16.6667C21 17.0203 20.8645 17.3594 20.6234 17.6095C20.3823 17.8595 20.0553 18 19.7143 18ZM4.28571 7.33333V16.6667H19.7143V7.33333H4.28571Z" fill="#2B2B2B"/>
<path d="M15.214 14H8.14258V15.3334H15.214V14Z" fill="#2B2B2B"/>
<path d="M6.85749 8.66675H5.57178V10.0001H6.85749V8.66675Z" fill="#2B2B2B"/>
<path d="M9.42829 8.66675H8.14258V10.0001H9.42829V8.66675Z" fill="#2B2B2B"/>
<path d="M12.0001 8.66675H10.7144V10.0001H12.0001V8.66675Z" fill="#2B2B2B"/>
<path d="M14.5714 8.66675H13.2856V10.0001H14.5714V8.66675Z" fill="#2B2B2B"/>
<path d="M6.85749 14H5.57178V15.3334H6.85749V14Z" fill="#2B2B2B"/>
<path d="M6.85749 11.3333H5.57178V12.6666H6.85749V11.3333Z" fill="#2B2B2B"/>
<path d="M9.42829 11.3333H8.14258V12.6666H9.42829V11.3333Z" fill="#2B2B2B"/>
<path d="M12.0001 11.3333H10.7144V12.6666H12.0001V11.3333Z" fill="#2B2B2B"/>
<path d="M18.4289 8.66675H15.8574V10.0001H18.4289V8.66675Z" fill="#2B2B2B"/>
<path d="M18.4289 11.3333H15.8574V12.6666H18.4289V11.3333Z" fill="#2B2B2B"/>
<path d="M14.5714 11.3333H13.2856V12.6666H14.5714V11.3333Z" fill="#2B2B2B"/>
<path d="M18.4286 14H16.5V15.3334H18.4286V14Z" fill="#2B2B2B"/>
</svg>
