<svg width="24" height="24" viewBox="0 0 24 24" fill="none" xmlns="http://www.w3.org/2000/svg">
<path d="M19.7143 4.99997H4.28571C3.94472 4.99997 3.6177 5.12289 3.37658 5.34168C3.13546 5.56047 3 5.85722 3 6.16664V17.8333C3 18.1427 3.13546 18.4395 3.37658 18.6583C3.6177 18.8771 3.94472 19 4.28571 19H19.7143C20.0553 19 20.3823 18.8771 20.6234 18.6583C20.8645 18.4395 21 18.1427 21 17.8333V6.16664C21 5.85722 20.8645 5.56047 20.6234 5.34168C20.3823 5.12289 20.0553 4.99997 19.7143 4.99997ZM4.28571 6.16664H14.5714V17.8333H4.28571V6.16664Z" fill="#2B2B2B"/>
</svg>
