<svg width="24" height="24" viewBox="0 0 24 24" fill="none" xmlns="http://www.w3.org/2000/svg">
<path d="M2.42342 16.9607C2.02012 16.9607 1.71171 17.2815 1.71171 17.6939C1.71171 18.1064 2.04384 18.4272 2.42342 18.4272C2.803 18.4272 3.13513 18.1064 3.13513 17.6939C3.13513 17.2815 2.803 16.9607 2.42342 16.9607ZM2.42342 17.946C2.28108 17.946 2.18618 17.8314 2.18618 17.671C2.18618 17.5106 2.3048 17.3961 2.42342 17.3961C2.56576 17.3961 2.66066 17.5106 2.66066 17.671C2.66066 17.8314 2.54204 17.946 2.42342 17.946ZM13.5261 16.9378C13.1228 16.9378 12.8144 17.2586 12.8144 17.671C12.8144 18.0835 13.1465 18.4043 13.5261 18.4043C13.9057 18.4043 14.2378 18.0835 14.2378 17.671C14.2378 17.2586 13.9294 16.9378 13.5261 16.9378ZM13.5261 17.9231C13.3838 17.9231 13.2889 17.8085 13.2889 17.6481C13.2889 17.4877 13.4075 17.3732 13.5261 17.3732C13.6447 17.3732 13.7633 17.4877 13.7633 17.6481C13.7633 17.8085 13.6684 17.9231 13.5261 17.9231ZM14.1904 16.3191H2.20991C1.54564 16.3191 1 16.892 1 17.6023V17.7169C1 18.4272 1.54564 19 2.20991 19H14.1904C14.8546 19 15.4003 18.4272 15.4003 17.7169V17.6023C15.4003 16.892 14.8546 16.3191 14.1904 16.3191ZM14.9258 17.7169C14.9258 18.1751 14.5937 18.5417 14.1904 18.5417H2.20991C1.80661 18.5417 1.47447 18.1751 1.47447 17.7169V17.6023C1.47447 17.144 1.80661 16.7774 2.20991 16.7774H14.1904C14.5937 16.7774 14.9258 17.144 14.9258 17.6023C14.9258 17.6023 14.9258 17.7169 14.9258 17.7169ZM10.6081 10.4304L11.2486 12.8134C11.2724 12.928 11.2012 13.0655 11.0826 13.0884C11.0588 13.0884 11.0351 13.0884 11.0114 13.0884C10.9165 13.0884 10.7979 13.0196 10.7742 12.928L10.1336 10.545C10.0862 10.3846 9.94383 10.27 9.77776 10.27H8.23572C8.04593 10.27 7.87987 10.4304 7.87987 10.6137V11.3928C7.87987 11.5303 7.78497 11.6219 7.64263 11.6219C7.50029 11.6219 7.40539 11.5303 7.40539 11.3928V10.6137C7.40539 10.1784 7.78497 9.81178 8.23572 9.81178H9.80149C10.1811 9.81178 10.5132 10.0638 10.6081 10.4304ZM20.7618 15.1047L21.9955 5.57283C22.0192 5.45827 21.948 5.36661 21.8294 5.32079L20.7855 5C20.7618 5 20.7618 5 20.7381 5H20.7144C20.6907 5 20.6669 5 20.6432 5.02291L15.9222 6.81015C13.7159 7.5892 11.6519 9.53682 11.557 9.65139C11.5333 9.6743 11.5333 9.6743 11.5333 9.69722C11.3672 9.19313 10.8691 8.82651 10.2997 8.82651H7.59518C6.88347 8.82651 6.3141 9.37643 6.3141 10.0638V11.3241C6.24293 11.3011 6.17176 11.3011 6.07687 11.3011L3.68078 11.3241C3.2063 11.3241 2.803 11.6448 2.68438 12.1031L2.16246 14.5319C2.09129 14.8298 2.16246 15.1277 2.37597 15.3568C2.56576 15.5859 2.85045 15.7234 3.15886 15.7234H13.1465C13.4787 15.7234 13.7633 15.5859 13.9531 15.3339C14.1429 15.0818 14.2141 14.761 14.1192 14.4632C14.0006 14.0507 13.5973 13.7529 13.1465 13.7529H12.6009L12.2213 12.3093C12.2213 12.3093 12.245 12.3093 12.245 12.2864C12.2687 12.2406 15.1868 8.34534 17.5354 8.2766L19.3621 8.1162H19.3859L19.4096 13.7987C19.4096 13.8445 19.4333 13.8903 19.457 13.9133L17.2982 16.0442L16.3018 15.9296C16.2543 15.9067 16.2069 15.9067 16.1357 15.9296C16.0408 15.9525 15.9696 16.0442 15.9696 16.1358C15.9696 16.1817 15.9934 16.2275 16.0408 16.3191C16.0408 16.3191 16.0408 16.3191 16.0645 16.3421C16.3018 16.7087 17.0135 17.3732 17.7015 17.6939C18.0573 17.8543 18.3895 17.946 18.7453 17.946C19.2672 17.946 19.7892 17.7398 20.2399 17.3273C20.8567 16.7774 21.0228 16.0442 20.7381 15.2193C20.7381 15.1735 20.7381 15.1277 20.7618 15.1047ZM19.5282 6.44353C19.5282 6.44353 19.5045 6.44353 19.5282 6.44353C19.5045 6.44353 19.0537 6.42062 18.1285 6.44353L20.0738 5.71031L19.5282 6.44353ZM20.3585 14.4173L19.884 13.73L19.8603 6.76432L20.8093 5.48118L21.4973 5.6874L20.3585 14.4173ZM13.6922 14.5777C13.7396 14.7381 13.7159 14.8985 13.5973 15.036C13.4787 15.1735 13.3363 15.2422 13.1702 15.2422H3.15886C2.99279 15.2422 2.85045 15.1735 2.73183 15.036C2.61321 14.8985 2.58949 14.761 2.61321 14.6007L3.15886 12.2177C3.2063 11.9656 3.41982 11.8052 3.68078 11.8052L6.07687 11.7594C6.26666 11.7594 6.45645 11.8511 6.55134 12.0115L7.61891 13.73C7.8087 14.0278 8.14083 14.2111 8.49668 14.2111H13.1702C13.4075 14.1882 13.621 14.3486 13.6922 14.5777ZM8.49668 13.73C8.30689 13.73 8.1171 13.6383 8.02221 13.4779L6.95464 11.7594C6.9072 11.6678 6.83603 11.599 6.74113 11.5303C6.76485 11.5074 6.76485 11.4615 6.76485 11.4157V10.0409C6.76485 9.60557 7.12071 9.26187 7.57146 9.26187H10.276C10.6555 9.26187 10.9639 9.51391 11.0588 9.85761L12.1027 13.73H8.49668ZM19.3384 7.68085L17.5117 7.84124C15.3054 7.88707 12.8144 10.82 12.079 11.7365L11.6045 10.018C11.6282 10.0409 11.6757 10.0409 11.6994 10.0409C11.7705 10.0409 11.818 10.018 11.8654 9.97218C11.8892 9.94926 13.7871 8.16203 15.8036 7.33715L16.0171 7.2455C16.4678 7.08511 16.9423 6.97054 17.3931 6.94763C18.5081 6.9018 19.1486 6.9018 19.3621 6.9018V7.68085C19.3859 7.68085 19.3621 7.68085 19.3384 7.68085ZM19.884 16.9836C19.457 17.3732 19.0063 17.5336 18.5081 17.4648C17.8201 17.3732 17.1558 16.8691 16.7762 16.4795L17.3456 16.5483C17.4168 16.5483 17.488 16.5254 17.5354 16.4795L19.6943 14.3715C20.0738 14.8069 20.9042 16.0671 19.884 16.9836Z" fill="#2B2B2B"/>
</svg>
