<svg width="24" height="24" viewBox="0 0 24 24" fill="none" xmlns="http://www.w3.org/2000/svg">
<path fill-rule="evenodd" clip-rule="evenodd" d="M14.0631 6H9.95787C9.40558 6 8.95787 6.44772 8.95787 7V9.42106H15.0631V7C15.0631 6.44772 14.6154 6 14.0631 6ZM16.0631 9.42106H17.8092C19.145 9.42106 20.1054 10.7055 19.7276 11.9867L18.0825 17.5657C17.8317 18.4162 17.0508 19 16.1641 19H7.85668C6.96998 19 6.18913 18.4162 5.93834 17.5657L4.29327 11.9867C3.91546 10.7055 4.87581 9.42106 6.21161 9.42106H7.95787V7C7.95787 5.89543 8.8533 5 9.95787 5H14.0631C15.1677 5 16.0631 5.89543 16.0631 7V9.42106ZM6.21161 10.4211H17.8092C18.4771 10.4211 18.9573 11.0633 18.7684 11.7039L17.1233 17.2828C16.9979 17.7081 16.6075 18 16.1641 18H7.85668C7.41333 18 7.0229 17.7081 6.89751 17.2828L5.25243 11.7039C5.06353 11.0633 5.54371 10.4211 6.21161 10.4211Z" fill="#2B2B2B"/>
</svg>
