<svg width="24" height="24" viewBox="0 0 24 24" fill="none" xmlns="http://www.w3.org/2000/svg">
<path d="M19.6154 3H4.38462C3.61962 3 3 3.61962 3 4.38462V19.6154C3 20.3804 3.61962 21 4.38462 21H19.6154C20.3804 21 21 20.3804 21 19.6154V4.38462C21 3.61962 20.3804 3 19.6154 3ZM19.6154 4.38462V7.15385H4.38462V4.38462H19.6154ZM12.6923 8.53846H19.6154V13.3846H12.6923V8.53846ZM11.3077 13.3846H4.38462V8.53846H11.3077V13.3846ZM4.38462 14.7692H11.3077V19.6154H4.38462V14.7692ZM12.6923 19.6154V14.7692H19.6154V19.6154H12.6923Z" fill="#2B2B2B"/>
</svg>
