<svg width="24" height="24" viewBox="0 0 24 24" fill="none" xmlns="http://www.w3.org/2000/svg">
<path d="M5.09091 5C4.49284 5 4 5.51282 4 6.13513V15.5946C4 16.2169 4.49284 16.7297 5.09091 16.7297H10.3636V18.2432H9.81818C9.61735 18.2432 9.45455 18.4126 9.45455 18.6216C9.45455 18.8306 9.61735 19 9.81818 19H14.1818C14.3827 19 14.5455 18.8306 14.5455 18.6216C14.5455 18.4126 14.3827 18.2432 14.1818 18.2432H13.6364V16.7297H18.9091C19.5072 16.7297 20 16.2169 20 15.5946V6.13513C20 5.51282 19.5072 5 18.9091 5H5.09091ZM5.09091 5.75676H18.9091C19.1168 5.75676 19.2727 5.91897 19.2727 6.13513V13.7027H4.72727V6.13513C4.72727 5.91897 4.88316 5.75676 5.09091 5.75676ZM4.72727 14.4595H19.2727V15.5946C19.2727 15.8108 19.1168 15.973 18.9091 15.973H5.09091C4.88316 15.973 4.72727 15.8108 4.72727 15.5946V14.4595ZM12 14.8378C11.7992 14.8378 11.6364 15.0072 11.6364 15.2162C11.6364 15.4252 11.7992 15.5946 12 15.5946C12.2008 15.5946 12.3636 15.4252 12.3636 15.2162C12.3636 15.0072 12.2008 14.8378 12 14.8378ZM11.0909 16.7297H12.9091V18.2432H11.0909V16.7297Z" fill="#2B2B2B"/>
</svg>
