<svg width="24" height="24" viewBox="0 0 24 24" fill="none" xmlns="http://www.w3.org/2000/svg">
<path d="M19.9427 6.05858C19.6088 5.72305 19.2119 5.45682 18.775 5.27516C18.338 5.09351 17.8696 5 17.3965 5C16.9234 5 16.4549 5.09351 16.018 5.27516C15.581 5.45682 15.1842 5.72305 14.8502 6.05858L15.701 6.91038C15.924 6.68705 16.1888 6.5099 16.4802 6.38904C16.7717 6.26818 17.084 6.20597 17.3995 6.20597C17.7149 6.20597 18.0273 6.26818 18.3187 6.38904C18.6101 6.5099 18.8749 6.68705 19.098 6.91038C19.321 7.1337 19.4979 7.39883 19.6187 7.69061C19.7394 7.9824 19.8015 8.29514 19.8015 8.61097C19.8015 8.9268 19.7394 9.23953 19.6187 9.53132C19.4979 9.82311 19.321 10.0882 19.098 10.3116L14.305 15.1104C13.8553 15.5614 13.2451 15.8151 12.6086 15.8157C11.9721 15.8162 11.3615 15.5636 10.911 15.1134C10.4606 14.6632 10.2072 14.0522 10.2066 13.4149C10.206 12.7776 10.4584 12.1662 10.908 11.7152L11.7528 10.8634L10.908 10.0116L10.0573 10.8634C9.72216 11.1978 9.45626 11.5951 9.27483 12.0326C9.09339 12.4701 9 12.9391 9 13.4128C9 13.8865 9.09339 14.3555 9.27483 14.793C9.45626 15.2305 9.72216 15.6278 10.0573 15.9622C10.7352 16.6322 11.651 17.0055 12.6035 16.9999C13.0785 17.0019 13.5491 16.9096 13.9882 16.7284C14.4273 16.5472 14.8261 16.2807 15.1618 15.9442L19.9547 11.1454C20.6263 10.4689 21.0022 9.55326 21 8.59949C20.9977 7.64571 20.6175 6.73183 19.9427 6.05858Z" fill="#2B2B2B"/>
<path d="M4.92778 17.0891C4.70421 16.8658 4.5268 16.6004 4.40575 16.3081C4.28469 16.0158 4.22237 15.7024 4.22237 15.3858C4.22237 15.0693 4.28469 14.7559 4.40575 14.4636C4.5268 14.1713 4.70421 13.9058 4.92778 13.6825L9.71767 8.87602C9.9402 8.65168 10.2047 8.47365 10.496 8.35218C10.7873 8.2307 11.0996 8.16817 11.4151 8.16817C11.7305 8.16817 12.0429 8.2307 12.3342 8.35218C12.6255 8.47365 12.89 8.65168 13.1125 8.87602C13.3347 9.10109 13.5095 9.36861 13.6268 9.66274C13.744 9.95687 13.8013 10.2716 13.7951 10.5883C13.7969 10.9061 13.7359 11.221 13.6157 11.5149C13.4954 11.8088 13.3183 12.0759 13.0945 12.3007L11.8252 13.5924L12.6754 14.4456L13.9447 13.1718C14.6204 12.4938 15 11.5742 15 10.6154C15 9.65652 14.6204 8.73693 13.9447 8.05892C13.2691 7.3809 12.3527 7 11.3971 7C10.4416 7 9.52517 7.3809 8.8495 8.05892L4.05962 12.8654C3.72381 13.2004 3.45731 13.5988 3.27547 14.0375C3.09362 14.4762 3 14.9467 3 15.4219C3 15.897 3.09362 16.3675 3.27547 16.8063C3.45731 17.245 3.72381 17.6433 4.05962 17.9783C4.74147 18.6443 5.65878 19.0117 6.61023 18.9997C7.57006 19.0006 8.49129 18.6205 9.17282 17.9423L8.32261 17.0891C8.10008 17.3135 7.83557 17.4915 7.54428 17.613C7.25298 17.7345 6.94064 17.797 6.6252 17.797C6.30975 17.797 5.99741 17.7345 5.70612 17.613C5.41483 17.4915 5.15032 17.3135 4.92778 17.0891Z" fill="#2B2B2B"/>
</svg>
