<svg width="24" height="24" viewBox="0 0 24 24" fill="none" xmlns="http://www.w3.org/2000/svg">
<path d="M12.1174 16.2276C12.1174 15.5201 12.6805 14.948 13.3728 14.948C14.0651 14.948 14.6282 15.5201 14.6282 16.2276C14.6282 16.9352 14.0651 17.5073 13.3728 17.5073C12.6805 17.5073 12.1174 16.9352 12.1174 16.2276ZM11.5774 16.2276C11.5774 17.2315 12.3804 18.0473 13.3728 18.0473C14.3652 18.0473 15.1682 17.2315 15.1682 16.2276C15.1682 15.2237 14.3652 14.408 13.3728 14.408C12.3804 14.408 11.5774 15.2237 11.5774 16.2276Z" fill="#2B2B2B"/>
<path d="M4.79535 16.8475C4.79535 16.4821 5.08515 16.1877 5.4406 16.1877C5.79605 16.1877 6.08585 16.4821 6.08585 16.8475C6.08585 17.2129 5.79605 17.5073 5.4406 17.5073C5.08515 17.5073 4.79535 17.2129 4.79535 16.8475ZM4.25535 16.8475C4.25535 17.5092 4.785 18.0473 5.4406 18.0473C6.0962 18.0473 6.62585 17.5092 6.62585 16.8475C6.62585 16.1858 6.0962 15.6477 5.4406 15.6477C4.785 15.6477 4.25535 16.1858 4.25535 16.8475Z" fill="#2B2B2B"/>
<path d="M10.357 16.8475V15.6078C10.357 15.4587 10.4779 15.3378 10.627 15.3378C10.7762 15.3378 10.897 15.4587 10.897 15.6078V16.8475C10.897 16.9966 10.7762 17.1175 10.627 17.1175C10.4779 17.1175 10.357 16.9966 10.357 16.8475Z" fill="#2B2B2B"/>
<path d="M11.7747 14.1955L10.8594 15.7451C10.7836 15.8735 10.618 15.9161 10.4897 15.8403C10.3613 15.7644 10.3186 15.5989 10.3945 15.4705L11.3097 13.9209C11.3856 13.7925 11.5511 13.7498 11.6795 13.8257C11.8079 13.9015 11.8505 14.0671 11.7747 14.1955Z" fill="#2B2B2B"/>
<path d="M13.1694 13.6884L11.644 14.3082C11.5058 14.3644 11.3483 14.2979 11.2922 14.1597C11.2361 14.0216 11.3025 13.8641 11.4407 13.808L12.9661 13.1881C13.1043 13.132 13.2618 13.1984 13.3179 13.3366C13.374 13.4747 13.3075 13.6322 13.1694 13.6884Z" fill="#2B2B2B"/>
<path d="M10.627 17.1175H7.2711C7.12198 17.1175 7.0011 16.9966 7.0011 16.8475C7.0011 16.6984 7.12198 16.5775 7.2711 16.5775H10.627C10.7762 16.5775 10.897 16.6984 10.897 16.8475C10.897 16.9966 10.7762 17.1175 10.627 17.1175Z" fill="#2B2B2B"/>
<path d="M7.00114 16.8475C7.00114 15.9685 6.3016 15.2579 5.44063 15.2579C4.57966 15.2579 3.88012 15.9685 3.88012 16.8475C3.88012 16.9966 3.75924 17.1175 3.61012 17.1175C3.461 17.1175 3.34012 16.9966 3.34012 16.8475C3.34012 15.6722 4.2795 14.7179 5.44063 14.7179C6.60176 14.7179 7.54114 15.6722 7.54114 16.8475C7.54114 16.9966 7.42026 17.1175 7.27114 17.1175C7.12202 17.1175 7.00114 16.9966 7.00114 16.8475Z" fill="#2B2B2B"/>
<path d="M3.61019 17.1175H3.3051C3.15599 17.1175 3.0351 16.9966 3.0351 16.8475C3.0351 16.6984 3.15599 16.5775 3.3051 16.5775H3.61019C3.7593 16.5775 3.88019 16.6984 3.88019 16.8475C3.88019 16.9966 3.7593 17.1175 3.61019 17.1175Z" fill="#2B2B2B"/>
<path d="M3.57489 14.3681V16.8475C3.57489 16.9966 3.45401 17.1175 3.30489 17.1175C3.15577 17.1175 3.03489 16.9966 3.03489 16.8475V14.3681C3.03489 14.219 3.15577 14.0981 3.30489 14.0981C3.45401 14.0981 3.57489 14.219 3.57489 14.3681Z" fill="#2B2B2B"/>
<path d="M3.61019 14.6381H3.3051C3.15599 14.6381 3.0351 14.5172 3.0351 14.3681C3.0351 14.219 3.15599 14.0981 3.3051 14.0981H3.61019C3.7593 14.0981 3.88019 14.219 3.88019 14.3681C3.88019 14.5172 3.7593 14.6381 3.61019 14.6381Z" fill="#2B2B2B"/>
<path d="M3.88019 13.4383V14.3681C3.88019 14.5172 3.7593 14.6381 3.61019 14.6381C3.46107 14.6381 3.34019 14.5172 3.34019 14.3681V13.4383C3.34019 13.2892 3.46107 13.1683 3.61019 13.1683C3.7593 13.1683 3.88019 13.2892 3.88019 13.4383Z" fill="#2B2B2B"/>
<path d="M3.49752 12.939L3.8026 13.2489C3.90721 13.3552 3.90587 13.5261 3.7996 13.6307C3.69333 13.7353 3.52238 13.734 3.41777 13.6277L3.11269 13.3178C3.00808 13.2115 3.00942 13.0406 3.11569 12.936C3.22196 12.8313 3.39291 12.8327 3.49752 12.939Z" fill="#2B2B2B"/>
<path d="M3.57489 11.8887V13.1284C3.57489 13.2775 3.45401 13.3984 3.30489 13.3984C3.15577 13.3984 3.03489 13.2775 3.03489 13.1284V11.8887C3.03489 11.7396 3.15577 11.6187 3.30489 11.6187C3.45401 11.6187 3.57489 11.7396 3.57489 11.8887Z" fill="#2B2B2B"/>
<path d="M5.44057 12.1587H3.30498C3.15586 12.1587 3.03498 12.0378 3.03498 11.8887C3.03498 11.7396 3.15586 11.6187 3.30498 11.6187H5.44057C5.58969 11.6187 5.71057 11.7396 5.71057 11.8887C5.71057 12.0378 5.58969 12.1587 5.44057 12.1587Z" fill="#2B2B2B"/>
<path d="M5.71057 6.00009V14.0582C5.71057 14.2073 5.58969 14.3282 5.44057 14.3282C5.29145 14.3282 5.17057 14.2073 5.17057 14.0582V6.00009C5.17057 5.85097 5.29145 5.73009 5.44057 5.73009C5.58969 5.73009 5.71057 5.85097 5.71057 6.00009Z" fill="#2B2B2B"/>
<path d="M10.3219 6.27009H5.44057C5.29145 6.27009 5.17056 6.1492 5.17056 6.00009C5.17056 5.85097 5.29145 5.73009 5.44057 5.73009H10.3219C10.471 5.73009 10.5919 5.85097 10.5919 6.00009C10.5919 6.1492 10.471 6.27009 10.3219 6.27009Z" fill="#2B2B2B"/>
<path d="M13.4262 14.7754L10.0702 6.09742C10.0164 5.95834 10.0856 5.802 10.2247 5.74821C10.3637 5.69443 10.5201 5.76357 10.5739 5.90265L13.9298 14.5806C13.9836 14.7197 13.9145 14.876 13.7754 14.9298C13.6363 14.9836 13.4799 14.9145 13.4262 14.7754Z" fill="#2B2B2B"/>
<path d="M10.6269 16.2675H11.8472C11.9964 16.2675 12.1172 16.3884 12.1172 16.5375C12.1172 16.6867 11.9964 16.8075 11.8472 16.8075H10.6269C10.4778 16.8075 10.3569 16.6867 10.3569 16.5375C10.3569 16.3884 10.4778 16.2675 10.6269 16.2675Z" fill="#2B2B2B"/>
<path d="M12.966 12.5683L14.4914 11.9485C14.6296 11.8923 14.7871 11.9588 14.8432 12.097C14.8994 12.2351 14.8329 12.3926 14.6947 12.4488L13.1693 13.0686C13.0312 13.1247 12.8737 13.0583 12.8175 12.9201C12.7614 12.782 12.8279 12.6245 12.966 12.5683Z" fill="#2B2B2B"/>
<path d="M14.8631 6.30998V15.2979C14.8631 15.447 14.7422 15.5679 14.5931 15.5679C14.444 15.5679 14.3231 15.447 14.3231 15.2979V6.30998C14.3231 6.16086 14.444 6.03998 14.5931 6.03998C14.7422 6.03998 14.8631 6.16086 14.8631 6.30998Z" fill="#2B2B2B"/>
<path d="M15.8135 6.57998H14.5932C14.444 6.57998 14.3232 6.4591 14.3232 6.30998C14.3232 6.16086 14.444 6.03998 14.5932 6.03998H15.8135C15.9626 6.03998 16.0835 6.16086 16.0835 6.30998C16.0835 6.4591 15.9626 6.57998 15.8135 6.57998Z" fill="#2B2B2B"/>
<path d="M15.5435 14.3681V6.30998C15.5435 6.16086 15.6644 6.03998 15.8135 6.03998C15.9626 6.03998 16.0835 6.16086 16.0835 6.30998V14.3681C16.0835 14.5172 15.9626 14.6381 15.8135 14.6381C15.6644 14.6381 15.5435 14.5172 15.5435 14.3681Z" fill="#2B2B2B"/>
<path d="M15.8135 11.9286H16.7288C16.8779 11.9286 16.9988 12.0495 16.9988 12.1986C16.9988 12.3477 16.8779 12.4686 16.7288 12.4686H15.8135C15.6644 12.4686 15.5435 12.3477 15.5435 12.1986C15.5435 12.0495 15.6644 11.9286 15.8135 11.9286Z" fill="#2B2B2B"/>
<path d="M16.4588 16.5376V12.1986C16.4588 12.0495 16.5797 11.9286 16.7288 11.9286C16.8779 11.9286 16.9988 12.0495 16.9988 12.1986V16.5376C16.9988 16.6867 16.8779 16.8076 16.7288 16.8076C16.5797 16.8076 16.4588 16.6867 16.4588 16.5376Z" fill="#2B2B2B"/>
<path d="M16.0835 14.3681V16.5376C16.0835 16.6867 15.9626 16.8076 15.8135 16.8076C15.6644 16.8076 15.5435 16.6867 15.5435 16.5376V14.3681C15.5435 14.219 15.6644 14.0981 15.8135 14.0981C15.9626 14.0981 16.0835 14.219 16.0835 14.3681Z" fill="#2B2B2B"/>
<path d="M21 16.8075H14.8983C14.7492 16.8075 14.6283 16.6867 14.6283 16.5375C14.6283 16.3884 14.7492 16.2675 14.8983 16.2675H21C21.1491 16.2675 21.27 16.3884 21.27 16.5375C21.27 16.6867 21.1491 16.8075 21 16.8075Z" fill="#2B2B2B"/>
<path d="M11.289 14.1516L10.3738 11.6722C10.3221 11.5323 10.3937 11.3771 10.5336 11.3254C10.6734 11.2738 10.8287 11.3453 10.8803 11.4852L11.7956 13.9646C11.8472 14.1045 11.7757 14.2598 11.6358 14.3114C11.4959 14.3631 11.3407 14.2915 11.289 14.1516Z" fill="#2B2B2B"/>
<path d="M12.2541 11.2091L10.7287 11.8289C10.5905 11.885 10.4331 11.8186 10.3769 11.6804C10.3208 11.5423 10.3873 11.3848 10.5254 11.3286L12.0508 10.7088C12.189 10.6526 12.3465 10.7191 12.4026 10.8573C12.4587 10.9954 12.3923 11.1529 12.2541 11.2091Z" fill="#2B2B2B"/>
<path d="M10.6898 11.388L10.3848 10.7681C10.3189 10.6343 10.374 10.4725 10.5078 10.4066C10.6416 10.3408 10.8034 10.3959 10.8693 10.5297L11.1743 11.1495C11.2402 11.2833 11.1851 11.4451 11.0513 11.511C10.9175 11.5768 10.7557 11.5218 10.6898 11.388Z" fill="#2B2B2B"/>
<path d="M11.3595 10.5797L10.1391 11.1996C10.0062 11.2671 9.84367 11.2141 9.77614 11.0811C9.70861 10.9482 9.76164 10.7857 9.89459 10.7181L11.1149 10.0983C11.2479 10.0308 11.4104 10.0838 11.4779 10.2167C11.5455 10.3497 11.4924 10.5122 11.3595 10.5797Z" fill="#2B2B2B"/>
<path d="M11.5423 14.3281H5.44062C5.29151 14.3281 5.17062 14.2072 5.17062 14.0581C5.17062 13.909 5.29151 13.7881 5.44062 13.7881H11.5423C11.6914 13.7881 11.8123 13.909 11.8123 14.0581C11.8123 14.2072 11.6914 14.3281 11.5423 14.3281Z" fill="#2B2B2B"/>
<path d="M9.46063 14.1571L8.85046 12.6075C8.79583 12.4687 8.86402 12.3119 9.00277 12.2573C9.14152 12.2027 9.29828 12.2709 9.35292 12.4096L9.96309 13.9592C10.0177 14.098 9.94953 14.2548 9.81078 14.3094C9.67203 14.364 9.51527 14.2958 9.46063 14.1571Z" fill="#2B2B2B"/>
<path d="M5.44053 12.2385H9.40664C9.55575 12.2385 9.67664 12.3593 9.67664 12.5085C9.67664 12.6576 9.55575 12.7785 9.40664 12.7785H5.44053C5.29142 12.7785 5.17053 12.6576 5.17053 12.5085C5.17053 12.3593 5.29142 12.2385 5.44053 12.2385Z" fill="#2B2B2B"/>
<path d="M6.62585 9.71914V12.5085C6.62585 12.6576 6.50497 12.7785 6.35585 12.7785C6.20674 12.7785 6.08585 12.6576 6.08585 12.5085V9.71914C6.08585 9.57003 6.20674 9.44914 6.35585 9.44914C6.50497 9.44914 6.62585 9.57003 6.62585 9.71914Z" fill="#2B2B2B"/>
<path d="M7.31964 11.6629L6.70947 9.80335C6.66298 9.66166 6.74015 9.50912 6.88183 9.46263C7.02352 9.41614 7.17606 9.49331 7.22255 9.63499L7.83272 11.4946C7.87921 11.6362 7.80204 11.7888 7.66036 11.8353C7.51867 11.8818 7.36613 11.8046 7.31964 11.6629Z" fill="#2B2B2B"/>
<path d="M9.40664 11.8488H7.57613C7.42701 11.8488 7.30613 11.7279 7.30613 11.5788C7.30613 11.4297 7.42701 11.3088 7.57613 11.3088H9.40664C9.55575 11.3088 9.67664 11.4297 9.67664 11.5788C9.67664 11.7279 9.55575 11.8488 9.40664 11.8488Z" fill="#2B2B2B"/>
<path d="M9.67664 11.5788V12.5086C9.67664 12.6577 9.55575 12.7786 9.40663 12.7786C9.25752 12.7786 9.13663 12.6577 9.13663 12.5086V11.5788C9.13663 11.4297 9.25752 11.3088 9.40663 11.3088C9.55575 11.3088 9.67664 11.4297 9.67664 11.5788Z" fill="#2B2B2B"/>
<path d="M6.35591 9.44914H6.96608C7.1152 9.44914 7.23608 9.57003 7.23608 9.71914C7.23608 9.86826 7.1152 9.98914 6.96608 9.98914H6.35591C6.2068 9.98914 6.08592 9.86826 6.08592 9.71914C6.08592 9.57003 6.2068 9.44914 6.35591 9.44914Z" fill="#2B2B2B"/>
</svg>
