<svg width="24" height="24" viewBox="0 0 24 24" fill="none" xmlns="http://www.w3.org/2000/svg">
<path fill-rule="evenodd" clip-rule="evenodd" d="M0.873936 15.3499C0.728553 15.2846 0.663036 15.1104 0.728299 14.9624L0.733505 14.9506C0.79788 14.8046 0.965356 14.7388 1.10871 14.8031C1.2706 14.8758 1.48785 14.8973 1.76871 14.8511L1.87562 14.8293L1.87892 14.8188L2.35684 13.939C2.40712 13.8463 2.50273 13.7887 2.6066 13.7887H3.48258L4.16378 12.4828C4.21343 12.3876 4.31043 12.328 4.41595 12.328L22.8142 12.328C23.0671 12.328 23.1951 12.6416 23.0174 12.8255L23.0059 12.8374C22.3576 13.5003 21.6857 13.966 21.1291 14.4041L21.0085 14.5019L21.1032 14.5331C21.1876 14.5653 21.2711 14.6013 21.3539 14.6407C21.4975 14.7089 21.5593 14.8838 21.4917 15.0303L21.4862 15.0421C21.419 15.1873 21.2496 15.2498 21.1072 15.1821C20.5582 14.9206 20.0297 14.8612 19.4797 15.1269C19.4705 15.1314 19.4601 15.136 19.4499 15.1399C18.8298 15.3697 18.2487 15.4473 17.7801 15.2371L17.7168 15.1915L17.6789 15.1821C17.1299 14.9206 16.6015 14.8612 16.0514 15.1269C16.0423 15.1314 16.0319 15.136 16.0217 15.1399C15.4016 15.3697 14.8204 15.4473 14.3519 15.2371L14.3044 15.203L14.2653 15.2092C14.2283 15.2079 14.191 15.1991 14.1555 15.1821C13.6064 14.9206 13.078 14.8612 12.5279 15.1269C12.5188 15.1314 12.5084 15.136 12.4982 15.1399C11.8781 15.3697 11.2969 15.4473 10.8284 15.2371L10.7651 15.1915L10.7272 15.1821C10.1782 14.9206 9.64974 14.8612 9.09969 15.1269C9.09055 15.1314 9.08014 15.136 9.06998 15.1399C8.44985 15.3697 7.8687 15.4473 7.40017 15.2371L7.37833 15.2215L7.35814 15.2247C7.3212 15.2234 7.28387 15.2145 7.24831 15.1975C6.69929 14.936 6.17083 14.8767 5.62079 15.1423C5.61164 15.1469 5.60123 15.1514 5.59107 15.1553C4.97094 15.3851 4.38979 15.4628 3.92126 15.2526C3.88482 15.2363 3.85346 15.2132 3.82794 15.1853L3.8014 15.1422L3.79226 15.1387C3.3862 15.0242 2.98548 15.0407 2.57346 15.2397C2.56431 15.2443 2.5539 15.2488 2.54375 15.2527C1.92361 15.4825 1.34246 15.5602 0.873936 15.3499ZM5.39185 14.594L5.64707 14.4897C6.29615 14.2701 6.9159 14.3806 7.49502 14.6561L7.51102 14.6683L7.52486 14.6657C7.56168 14.6664 7.59901 14.6743 7.63494 14.6902C7.89409 14.8065 8.29482 14.7919 8.87076 14.5787L9.12598 14.4742C9.77506 14.2546 10.3948 14.3651 10.9739 14.6407L11.0298 14.6828L11.0632 14.6902C11.3223 14.8065 11.7231 14.7919 12.299 14.5787L12.5542 14.4742C13.2033 14.2546 13.8231 14.3651 14.4022 14.6407L14.4433 14.6718L14.4766 14.6657C14.5134 14.6664 14.5507 14.6743 14.5867 14.6902C14.8458 14.8065 15.2465 14.7919 15.8225 14.5787L16.0777 14.4742C16.7268 14.2546 17.3465 14.3651 17.9256 14.6407L17.9815 14.6828L18.0149 14.6902C18.2741 14.8065 18.6748 14.7919 19.2507 14.5787L19.5059 14.4742C19.6914 14.4114 19.8744 14.3757 20.0548 14.3629L20.266 14.3612L20.7652 13.9343C21.142 13.6364 21.5428 13.3516 21.9555 13.0042L22.0451 12.9253L4.59498 12.9253L3.91555 14.2279L3.87276 14.2813L3.86184 14.2983L3.85562 14.3027L3.84432 14.3167L3.80356 14.3392L3.77042 14.3624L3.75582 14.3655L3.74896 14.3692L3.72382 14.3722L3.65792 14.3859H2.78207L2.68532 14.5639L2.87603 14.5126C3.42506 14.4024 3.95136 14.5173 4.44769 14.7535L4.46864 14.7693L4.37735 14.7674C4.62647 14.8023 4.9599 14.754 5.39185 14.594ZM6.5148 11.5851V11.5721C6.5148 11.411 6.61475 11.28 6.73791 11.28L16.8534 11.28C16.9765 11.28 17.0766 11.411 17.0766 11.5721V11.5851C17.0766 11.7464 16.9765 11.8773 16.8534 11.8773L6.73791 11.8773C6.61475 11.8773 6.5148 11.7464 6.5148 11.5851ZM8.79164 10.5292V10.5162C8.79164 10.3551 8.91962 10.2241 9.07732 10.2241H10.8053L10.7881 10.1747C10.7827 10.1372 10.7842 10.098 10.7941 10.0589L10.8906 9.67526C10.9235 9.5449 11.0393 9.45415 11.171 9.45597L11.8764 9.46505L12.3182 8.62515C12.3679 8.5305 12.4646 8.47129 12.5698 8.47129H13.1785C13.3361 8.47129 13.4642 8.60229 13.4642 8.76342V10.1145L13.4425 10.2241H15.3631C15.5206 10.2241 15.6488 10.3551 15.6488 10.5162V10.5292C15.6488 10.6904 15.5206 10.8213 15.3631 10.8213L9.07732 10.8213C8.91962 10.8213 8.79164 10.6904 8.79164 10.5292ZM12.8801 10.1145V9.06854H12.748L12.3051 9.91091C12.2547 10.0067 12.1563 10.0661 12.0499 10.0646L11.398 10.0562L11.3599 10.2077L11.352 10.2241L12.9017 10.2241L12.8801 10.1145Z" fill="#2B2B2B"/>
</svg>
