<svg width="24" height="24" viewBox="0 0 24 24" fill="none" xmlns="http://www.w3.org/2000/svg">
<path d="M19.7143 5.5H4.28571C3.94472 5.5 3.6177 5.63546 3.37658 5.87658C3.13546 6.1177 3 6.44472 3 6.78571V17.0714C3 17.4124 3.13546 17.7394 3.37658 17.9806C3.6177 18.2217 3.94472 18.3571 4.28571 18.3571H19.7143C20.0553 18.3571 20.3823 18.2217 20.6234 17.9806C20.8645 17.7394 21 17.4124 21 17.0714V6.78571C21 6.44472 20.8645 6.1177 20.6234 5.87658C20.3823 5.63546 20.0553 5.5 19.7143 5.5ZM18.3 6.78571L12 11.1443L5.7 6.78571H18.3ZM4.28571 17.0714V7.37071L11.6336 12.4557C11.7412 12.5304 11.869 12.5704 12 12.5704C12.131 12.5704 12.2588 12.5304 12.3664 12.4557L19.7143 7.37071V17.0714H4.28571Z" fill="#2B2B2B"/>
</svg>
