<svg width="24" height="24" viewBox="0 0 24 24" fill="none" xmlns="http://www.w3.org/2000/svg">
<path d="M14.4242 15.9586C14.4213 15.9586 14.4182 15.9586 14.4148 15.9586H9.13086C8.99688 15.9586 8.88877 15.8546 8.88877 15.7266V15.0454C8.88877 14.9838 8.91465 14.9246 8.96014 14.881C8.97308 14.8688 10.2098 13.679 10.2098 12.599C10.2098 11.8392 11.6949 11.2478 13.9609 10.4322C14.9351 10.082 16.407 9.55217 16.5068 9.29257C16.5483 8.84477 15.2586 7.92097 14.3731 7.43957C14.2815 7.39017 14.2337 7.28957 14.2556 7.19077C14.2769 7.09197 14.3624 7.01777 14.467 7.00737L16.6817 6.78357C16.7426 6.77677 16.8067 6.79437 16.8568 6.83157C17.1007 7.01497 19.244 8.65917 19.2975 9.83037C19.3098 10.1028 19.2104 10.342 19.0095 10.5224C18.9673 10.56 18.912 10.5822 18.8548 10.585C18.8354 10.5854 16.9317 10.6834 15.6991 12.022C14.8896 12.9002 14.5375 14.1192 14.6513 15.6454C14.6611 15.6708 14.6663 15.6986 14.6663 15.727C14.6663 15.8546 14.5582 15.9586 14.4242 15.9586ZM9.37274 15.4946H14.1567C14.0742 13.9222 14.472 12.6496 15.3398 11.7104C16.5548 10.3944 18.2899 10.1656 18.7309 10.128C18.7924 10.0514 18.8185 9.96137 18.8135 9.85057C18.778 9.06937 17.2954 7.76577 16.6339 7.25457L15.2258 7.39677C15.9713 7.86717 17.0509 8.67017 16.987 9.34297C16.94 9.83337 15.9754 10.2026 14.131 10.8666C12.8452 11.3292 10.6938 12.1032 10.6938 12.5988C10.6938 13.7192 9.66011 14.8468 9.37253 15.1392V15.4946H9.37274Z" fill="#2B2B2B"/>
<path d="M9.71325 14.6057C9.69425 14.6057 9.67443 14.6033 9.65523 14.5991C9.52563 14.5683 9.44612 14.4427 9.47826 14.3181C9.6642 13.5979 9.35012 12.5259 8.73154 11.7687C8.2649 11.1973 7.68911 10.8829 7.1106 10.8829C5.30622 10.8829 3.08236 9.03592 2.98886 8.95712C2.93627 8.91312 2.90622 8.84972 2.90622 8.78252V8.24332C2.90622 8.11492 3.01453 8.01132 3.14831 8.01132H5.89349C5.94608 8.01132 5.997 8.02772 6.03853 8.05752L8.07227 9.51932H9.48034C9.88709 8.01132 11.4471 8.01132 13.0943 8.01132C14.8883 8.01132 16.393 9.52792 16.4562 9.59272C16.5476 9.68612 16.5422 9.83292 16.4447 9.92032C16.3483 10.0079 16.1947 10.0041 16.1029 9.90992C16.0887 9.89592 14.6762 8.47532 13.0941 8.47532C11.2778 8.47532 10.1526 8.53872 9.91339 9.79312C9.89189 9.90332 9.79172 9.98352 9.67485 9.98352H7.99109C7.93871 9.98352 7.88758 9.96712 7.84605 9.93732L5.81231 8.47532H3.39039V8.67472C3.80278 9.00232 5.66852 10.4189 7.1106 10.4189C7.84125 10.4189 8.55227 10.7969 9.11262 11.4829C9.82678 12.3571 10.1703 13.5689 9.94824 14.4297C9.92069 14.5351 9.82198 14.6057 9.71325 14.6057Z" fill="#2B2B2B"/>
<path d="M5.60242 17.218C3.94642 17.218 2.59929 15.9264 2.59929 14.3388C2.59929 12.752 3.94642 11.4612 5.60242 11.4612C6.65299 11.4612 7.61007 11.9764 8.16207 12.8388C8.20172 12.9006 8.20882 12.9762 8.1819 13.043C8.15497 13.1106 8.09696 13.1622 8.02496 13.1826L5.6715 13.852C5.57738 13.8792 5.36847 13.975 5.32339 14.0958C5.30023 14.159 5.32381 14.2426 5.39539 14.3436C5.40145 14.3508 5.59783 14.5534 7.15345 14.5534C7.55143 14.5534 7.95734 14.5404 8.31442 14.524C8.38287 14.5142 8.45779 14.549 8.50642 14.6006C8.55504 14.6528 8.57675 14.723 8.56548 14.792C8.33258 16.1972 7.08666 17.218 5.60242 17.218ZM5.60242 11.925C4.21376 11.925 3.08367 13.0078 3.08367 14.3386C3.08367 15.6702 4.21376 16.7538 5.60242 16.7538C6.74586 16.7538 7.72026 16.032 8.02308 14.9998C7.74301 15.0104 7.44604 15.0172 7.15345 15.0172C5.50642 15.0172 5.13724 14.8072 4.99345 14.6026C4.79143 14.3152 4.81376 14.0822 4.86802 13.9378C5.00847 13.5644 5.48096 13.4218 5.53418 13.407L7.56458 12.829C7.08896 12.2582 6.37605 11.925 5.60242 11.925Z" fill="#2B2B2B"/>
<path d="M5.22876 10.3578C5.21644 10.3578 5.20413 10.3568 5.19182 10.355L3.24218 10.07C3.17686 10.0606 3.11843 10.026 3.08065 9.97439C3.04267 9.92219 3.02869 9.85799 3.04142 9.79619L3.20984 8.97279C3.23488 8.84639 3.36406 8.76359 3.49345 8.78979C3.62493 8.81419 3.7105 8.93599 3.68462 9.06159L3.56504 9.64739L5.26486 9.89619C5.39738 9.91579 5.48817 10.034 5.46792 10.1604C5.44893 10.2756 5.34604 10.3578 5.22876 10.3578Z" fill="#2B2B2B"/>
<path d="M18.2324 14.1455C18.1408 14.1455 18.0527 14.0953 18.012 14.0095L16.5887 11.0101C16.5334 10.8935 16.5873 10.7559 16.7089 10.7029C16.8315 10.6513 16.9738 10.7011 17.0295 10.8179L18.4526 13.8175C18.5081 13.9339 18.4541 14.0717 18.3326 14.1245C18.3 14.1385 18.266 14.1455 18.2324 14.1455Z" fill="#2B2B2B"/>
<path d="M18.3969 17.218C16.7409 17.218 15.394 15.9264 15.394 14.3388C15.394 13.7556 15.5764 13.1924 15.9216 12.711C15.9739 12.6376 16.0649 12.5994 16.1588 12.613L17.8261 12.8646L20.1143 12.1122C20.1952 12.0856 20.2854 12.1024 20.3503 12.1554C21.0179 12.7046 21.4004 13.5 21.4004 14.3388C21.4007 15.9264 20.0535 17.218 18.3969 17.218ZM16.2392 13.0952C16.0027 13.4708 15.8784 13.8978 15.8784 14.3388C15.8784 15.6704 17.0084 16.754 18.3971 16.754C19.7864 16.754 20.9165 15.6704 20.9165 14.3388C20.9165 13.6794 20.6337 13.051 20.1368 12.5954L17.9267 13.3224C17.8898 13.335 17.8497 13.338 17.8103 13.3322L16.2392 13.0952Z" fill="#2B2B2B"/>
<path d="M18.397 15.0934C17.9829 15.0934 17.6457 14.7708 17.6457 14.3738C17.6457 13.9768 17.9827 13.6538 18.397 13.6538C18.8113 13.6538 19.1481 13.9768 19.1481 14.3738C19.1481 14.7708 18.8115 15.0934 18.397 15.0934ZM18.397 14.118C18.2497 14.118 18.1301 14.2324 18.1301 14.3738C18.1301 14.5148 18.2497 14.6294 18.397 14.6294C18.5441 14.6294 18.6637 14.5148 18.6637 14.3738C18.6639 14.2324 18.5441 14.118 18.397 14.118Z" fill="#2B2B2B"/>
<path d="M17.8481 13.3348C17.8351 13.3348 17.823 13.334 17.8101 13.332L15.8488 13.0362C15.7689 13.0238 15.7004 12.974 15.6668 12.9034C15.6328 12.8326 15.638 12.7506 15.681 12.6844C16.2866 11.7492 17.3301 11.1908 18.4721 11.1908C19.3067 11.1908 20.1039 11.494 20.7162 12.044C20.7782 12.0998 20.8053 12.1826 20.7878 12.2618C20.7698 12.3416 20.7097 12.4066 20.6294 12.4328L17.9266 13.3218C17.9015 13.3308 17.8746 13.3348 17.8481 13.3348ZM16.3113 12.6362L17.8264 12.8646L20.0586 12.1306C19.5934 11.822 19.0431 11.6552 18.4721 11.6552C17.625 11.655 16.8409 12.0162 16.3113 12.6362Z" fill="#2B2B2B"/>
<path d="M18.4109 16.3725C17.2401 16.3725 16.2876 15.4607 16.2876 14.3407C16.2876 13.7667 16.5487 13.2147 17.0032 12.8263C17.0577 12.7801 17.1307 12.7597 17.2023 12.7703L17.8263 12.8645L19.0599 12.4595C19.1167 12.4403 19.178 12.4423 19.2321 12.4649C20.0216 12.7829 20.5314 13.5191 20.5314 14.3409C20.5314 15.4609 19.58 16.3725 18.4109 16.3725ZM17.2442 13.2463C16.9387 13.5427 16.7718 13.9273 16.7718 14.3407C16.7718 15.2053 17.507 15.9085 18.4109 15.9085C19.3128 15.9085 20.0474 15.2053 20.0474 14.3407C20.0474 13.7355 19.6889 13.1897 19.1263 12.9279L17.9267 13.3223C17.8887 13.3349 17.8497 13.3379 17.8102 13.3321L17.2442 13.2463Z" fill="#2B2B2B"/>
<path d="M7.22161 15.0237C6.19316 15.0237 5.22356 14.9303 4.99316 14.6027C4.79114 14.3153 4.81347 14.0823 4.86773 13.9379C5.00818 13.5645 5.48067 13.4219 5.53389 13.4071L9.40081 12.3067C9.5302 12.2709 9.66377 12.3407 9.70196 12.4629C9.73973 12.5859 9.6669 12.7149 9.53876 12.7515L5.67142 13.8519C5.5773 13.8791 5.36839 13.9749 5.32331 14.0957C5.30015 14.1589 5.32373 14.2425 5.39469 14.3435C5.59858 14.5741 7.45264 14.6239 9.44505 14.4519C9.57507 14.4413 9.69611 14.5343 9.70801 14.6621C9.71991 14.7899 9.62203 14.9023 9.48867 14.9141C8.94335 14.9611 8.06307 15.0237 7.22161 15.0237Z" fill="#2B2B2B"/>
<path d="M5.58496 16.3725C4.41439 16.3725 3.4619 15.4607 3.4619 14.3407C3.4619 13.2187 4.41418 12.3061 5.58496 12.3061C6.22566 12.3061 6.8267 12.5861 7.23366 13.0741C7.28374 13.1349 7.29981 13.2151 7.2754 13.2885C7.25119 13.3623 7.19066 13.4193 7.11366 13.4417L5.67157 13.8519C5.57745 13.8791 5.36854 13.9749 5.32346 14.0957C5.3003 14.1589 5.32388 14.2425 5.39546 14.3435C5.40152 14.3507 5.5979 14.5529 7.15915 14.5529L7.39644 14.5515C7.45007 14.5505 7.54253 14.5835 7.58948 14.6397C7.63644 14.6963 7.65251 14.7705 7.63393 14.8405C7.39414 15.7429 6.55143 16.3725 5.58496 16.3725ZM5.58496 12.7703C4.68131 12.7703 3.94607 13.4749 3.94607 14.3409C3.94607 15.2055 4.6811 15.9087 5.58496 15.9087C6.22148 15.9087 6.78788 15.5541 7.05501 15.0169C5.49188 15.0083 5.13439 14.8033 4.99352 14.6029C4.7915 14.3155 4.81383 14.0825 4.86809 13.9381C5.00854 13.5647 5.48103 13.4221 5.53425 13.4073L6.58733 13.1077C6.30225 12.8901 5.95206 12.7703 5.58496 12.7703Z" fill="#2B2B2B"/>
</svg>
