<svg width="24" height="24" viewBox="0 0 24 24" fill="none" xmlns="http://www.w3.org/2000/svg">
<path d="M12 3C10.7848 3.00263 9.59897 3.35941 8.59872 4.02332C7.59846 4.68722 6.83073 5.62711 6.39669 6.71914C5.96264 7.81116 5.88265 9.00409 6.16725 10.1407C6.45185 11.2774 7.08768 12.3044 7.99097 13.0864V21L12 18.4286L16.009 21V13.0864C16.9123 12.3044 17.5482 11.2774 17.8328 10.1407C18.1173 9.00409 18.0374 7.81116 17.6033 6.71914C17.1693 5.62711 16.4015 4.68722 15.4013 4.02332C14.401 3.35941 13.2152 3.00263 12 3ZM14.6727 18.5957L12.7417 17.3614L12 16.8857L11.2583 17.3614L9.32732 18.5957V13.9607C10.1562 14.3631 11.0716 14.5727 12 14.5727C12.9284 14.5727 13.8438 14.3631 14.6727 13.9607V18.5957ZM15.2674 12C14.4946 12.7258 13.4846 13.172 12.4088 13.2628C11.333 13.3537 10.2577 13.0835 9.36538 12.4982C8.47308 11.913 7.81877 11.0486 7.51353 10.052C7.20828 9.05532 7.27092 7.98775 7.69079 7.03047C8.11067 6.0732 8.86192 5.28521 9.81702 4.80026C10.7721 4.31532 11.8722 4.16331 12.9306 4.37003C13.9889 4.57674 14.9403 5.12946 15.6232 5.93434C16.3062 6.73923 16.6786 7.74669 16.6772 8.78571C16.6764 9.3848 16.5513 9.97771 16.3092 10.5297C16.0671 11.0816 15.7129 11.5815 15.2674 12Z" fill="#2B2B2B"/>
</svg>
