<svg width="24" height="24" viewBox="0 0 24 24" fill="none" xmlns="http://www.w3.org/2000/svg">
<path d="M9.87163 15.1828C9.87163 14.7502 10.2289 14.3981 10.6718 14.3981C11.1146 14.3981 11.4719 14.7502 11.4719 15.1828C11.4719 15.6153 11.1146 15.9675 10.6718 15.9675C10.2289 15.9675 9.87163 15.6153 9.87163 15.1828ZM9.33163 15.1828C9.33163 15.9153 9.93245 16.5075 10.6718 16.5075C11.4111 16.5075 12.0119 15.9153 12.0119 15.1828C12.0119 14.4502 11.4111 13.8581 10.6718 13.8581C9.93245 13.8581 9.33163 14.4502 9.33163 15.1828Z" fill="#2B2B2B"/>
<path d="M9.2338 15.4528H2.11056C1.96145 15.4528 1.84056 15.3319 1.84056 15.1828C1.84056 15.0337 1.96145 14.9128 2.11056 14.9128H9.2338C9.38292 14.9128 9.5038 15.0337 9.5038 15.1828C9.5038 15.3319 9.38292 15.4528 9.2338 15.4528Z" fill="#2B2B2B"/>
<path d="M2.38057 8.50309V15.1828C2.38057 15.3319 2.25969 15.4528 2.11057 15.4528C1.96145 15.4528 1.84057 15.3319 1.84057 15.1828V8.50309C1.84057 8.35398 1.96145 8.23309 2.11057 8.23309C2.25969 8.23309 2.38057 8.35398 2.38057 8.50309Z" fill="#2B2B2B"/>
<path d="M1.84047 8.50309C1.84047 7.96461 2.28149 7.52997 2.8239 7.52997C2.97302 7.52997 3.0939 7.65085 3.0939 7.79997C3.0939 7.94909 2.97302 8.06997 2.8239 8.06997C2.57798 8.06997 2.38047 8.26462 2.38047 8.50309C2.38047 8.65221 2.25959 8.77309 2.11047 8.77309C1.96136 8.77309 1.84047 8.65221 1.84047 8.50309Z" fill="#2B2B2B"/>
<path d="M2.82402 7.52997H16.3792C16.5283 7.52997 16.6492 7.65085 16.6492 7.79997C16.6492 7.94908 16.5283 8.06997 16.3792 8.06997H2.82402C2.67491 8.06997 2.55402 7.94908 2.55402 7.79997C2.55402 7.65085 2.67491 7.52997 2.82402 7.52997Z" fill="#2B2B2B"/>
<path d="M19.6762 15.1828C19.6762 11.2328 18.1481 8.06997 16.3791 8.06997C16.23 8.06997 16.1091 7.94909 16.1091 7.79997C16.1091 7.65085 16.23 7.52997 16.3791 7.52997C18.5533 7.52997 20.2162 10.9717 20.2162 15.1828C20.2162 15.3319 20.0954 15.4528 19.9462 15.4528C19.7971 15.4528 19.6762 15.3319 19.6762 15.1828Z" fill="#2B2B2B"/>
<path d="M11.9972 14.9128H19.9462C20.0954 14.9128 20.2162 15.0337 20.2162 15.1828C20.2162 15.3319 20.0954 15.4528 19.9462 15.4528H11.9972C11.8481 15.4528 11.7272 15.3319 11.7272 15.1828C11.7272 15.0337 11.8481 14.9128 11.9972 14.9128Z" fill="#2B2B2B"/>
<path d="M19.9462 14.2097H22.8C22.9491 14.2097 23.07 14.3305 23.07 14.4797C23.07 14.6288 22.9491 14.7497 22.8 14.7497H19.9462C19.7971 14.7497 19.6762 14.6288 19.6762 14.4797C19.6762 14.3305 19.7971 14.2097 19.9462 14.2097Z" fill="#2B2B2B"/>
<path d="M22.699 13.3385L23.0557 14.3932C23.1035 14.5345 23.0277 14.6877 22.8864 14.7355C22.7452 14.7833 22.5919 14.7075 22.5442 14.5662L22.1874 13.5115C22.1397 13.3703 22.2154 13.217 22.3567 13.1693C22.498 13.1215 22.6512 13.1973 22.699 13.3385Z" fill="#2B2B2B"/>
<path d="M21.6431 13.425V15.5343C21.6431 15.6835 21.5222 15.8043 21.3731 15.8043C21.224 15.8043 21.1031 15.6835 21.1031 15.5343V13.425C21.1031 13.2759 21.224 13.155 21.3731 13.155C21.5222 13.155 21.6431 13.2759 21.6431 13.425Z" fill="#2B2B2B"/>
<path d="M21.0164 15.2643H21.3731C21.5222 15.2643 21.6431 15.3852 21.6431 15.5343C21.6431 15.6835 21.5222 15.8043 21.3731 15.8043H21.0164C20.8673 15.8043 20.7464 15.6835 20.7464 15.5343C20.7464 15.3852 20.8673 15.2643 21.0164 15.2643Z" fill="#2B2B2B"/>
<path d="M17.0059 9.55778V11.3156C17.0059 11.4647 16.885 11.5856 16.7359 11.5856C16.5867 11.5856 16.4659 11.4647 16.4659 11.3156V9.55778C16.4659 9.40866 16.5867 9.28778 16.7359 9.28778C16.885 9.28778 17.0059 9.40866 17.0059 9.55778Z" fill="#2B2B2B"/>
<path d="M13.5254 11.0456H16.7359C16.885 11.0456 17.0059 11.1665 17.0059 11.3156C17.0059 11.4647 16.885 11.5856 16.7359 11.5856H13.5254C13.3763 11.5856 13.2554 11.4647 13.2554 11.3156C13.2554 11.1665 13.3763 11.0456 13.5254 11.0456Z" fill="#2B2B2B"/>
<path d="M13.7955 9.55778V11.3156C13.7955 11.4647 13.6746 11.5856 13.5255 11.5856C13.3763 11.5856 13.2555 11.4647 13.2555 11.3156V9.55778C13.2555 9.40866 13.3763 9.28778 13.5255 9.28778C13.6746 9.28778 13.7955 9.40866 13.7955 9.55778Z" fill="#2B2B2B"/>
<path d="M16.7359 9.82778H13.5254C13.3763 9.82778 13.2554 9.7069 13.2554 9.55778C13.2554 9.40866 13.3763 9.28778 13.5254 9.28778H16.7359C16.885 9.28778 17.0059 9.40866 17.0059 9.55778C17.0059 9.7069 16.885 9.82778 16.7359 9.82778Z" fill="#2B2B2B"/>
<path d="M7.73134 8.85466V14.1281C7.73134 14.2772 7.61045 14.3981 7.46134 14.3981C7.31222 14.3981 7.19134 14.2772 7.19134 14.1281V8.85466C7.19134 8.70554 7.31222 8.58466 7.46134 8.58466C7.61045 8.58466 7.73134 8.70554 7.73134 8.85466Z" fill="#2B2B2B"/>
<path d="M5.67777 8.58466H7.46134C7.61046 8.58466 7.73134 8.70554 7.73134 8.85466C7.73134 9.00377 7.61046 9.12466 7.46134 9.12466H5.67777C5.52865 9.12466 5.40777 9.00377 5.40777 8.85466C5.40777 8.70554 5.52865 8.58466 5.67777 8.58466Z" fill="#2B2B2B"/>
<path d="M5.4076 14.1281V8.85466C5.4076 8.70554 5.52849 8.58466 5.6776 8.58466C5.82672 8.58466 5.9476 8.70554 5.9476 8.85466V14.1281C5.9476 14.2772 5.82672 14.3981 5.6776 14.3981C5.52849 14.3981 5.4076 14.2772 5.4076 14.1281Z" fill="#2B2B2B"/>
<path d="M7.46134 14.3981H5.67777C5.52865 14.3981 5.40777 14.2772 5.40777 14.1281C5.40777 13.979 5.52865 13.8581 5.67777 13.8581H7.46134C7.61046 13.8581 7.73134 13.979 7.73134 14.1281C7.73134 14.2772 7.61046 14.3981 7.46134 14.3981Z" fill="#2B2B2B"/>
<path d="M2.11047 12.8034H2.8239C2.97302 12.8034 3.0939 12.9243 3.0939 13.0734C3.0939 13.2225 2.97302 13.3434 2.8239 13.3434H2.11047C1.96136 13.3434 1.84047 13.2225 1.84047 13.0734C1.84047 12.9243 1.96136 12.8034 2.11047 12.8034Z" fill="#2B2B2B"/>
</svg>
