<svg width="24" height="24" viewBox="0 0 24 24" fill="none" xmlns="http://www.w3.org/2000/svg">
<path d="M2.23553 14.9582H5.54729C5.37588 15.1739 5.26895 15.4439 5.26895 15.7413C5.26895 16.4352 5.82809 17 6.51535 17C6.98847 17 7.39585 16.7292 7.60688 16.3361H8.45014C8.6612 16.7292 9.06864 17 9.54176 17C10.0149 17 10.4223 16.7292 10.6333 16.3361H12.1865H12.2454H17.1031H18.0013C18.2124 16.7292 18.6198 17 19.093 17C19.5661 17 19.9735 16.7292 20.1845 16.3361H21.7645C21.8945 16.3361 22 16.2297 22 16.0982V14.8725C22 14.8724 22 14.8723 22 14.8722V12.4307C22 12.4023 21.9933 12.3747 21.9835 12.3482C21.9814 12.3424 21.9795 12.3369 21.977 12.3313C21.9749 12.3267 21.974 12.3217 21.9716 12.3173L20.3818 9.35368C20.3406 9.27702 20.2612 9.22916 20.1747 9.22916H17.3386V8.23789C17.3386 8.1064 17.2331 8 17.1031 8H2.23553C2.10546 8 2 8.1064 2 8.23789V14.7203C2 14.8518 2.10546 14.9582 2.23553 14.9582ZM19.093 16.5242C18.6654 16.5242 18.3176 16.173 18.3176 15.7413C18.3176 15.3095 18.6654 14.9582 19.093 14.9582C19.5204 14.9582 19.8682 15.3095 19.8682 15.7413C19.8682 16.173 19.5204 16.5242 19.093 16.5242ZM21.5289 14.5047L19.5859 13.6431V12.6685H21.5289V14.5047ZM21.3689 12.1928H19.5859V11.0628H20.7628L21.3689 12.1928ZM17.3386 9.70494H20.0344L20.5076 10.587H19.3503H17.3386V9.70494ZM17.3386 11.0628H19.1148V13.5606H17.3386V11.0628ZM17.3386 14.7203V14.0364H19.3009L21.5289 15.0244V15.8603H20.3273C20.3311 15.8205 20.3392 15.782 20.3392 15.7413C20.3392 15.0472 19.7802 14.4824 19.093 14.4824C18.4057 14.4824 17.8466 15.0472 17.8466 15.7413C17.8466 15.782 17.8547 15.8205 17.8585 15.8603H17.3386V14.7203ZM6.51535 16.5242C6.08777 16.5242 5.74 16.173 5.74 15.7413C5.74 15.3095 6.08777 14.9582 6.51535 14.9582C6.94282 14.9582 7.29058 15.3095 7.29058 15.7413C7.29058 16.173 6.94282 16.5242 6.51535 16.5242ZM8.29536 15.7413C8.29536 15.782 8.30351 15.8205 8.30728 15.8603H7.74973C7.7535 15.8205 7.76163 15.782 7.76163 15.7413C7.76163 15.4439 7.65472 15.1739 7.48334 14.9582H8.5737C8.40228 15.1739 8.29536 15.4439 8.29536 15.7413ZM9.54176 16.5242C9.11418 16.5242 8.76641 16.173 8.76641 15.7413C8.76641 15.3095 9.11418 14.9582 9.54176 14.9582C9.96923 14.9582 10.317 15.3095 10.317 15.7413C10.317 16.173 9.96923 16.5242 9.54176 16.5242ZM11.951 15.8603H10.7761C10.7799 15.8205 10.788 15.782 10.788 15.7413C10.788 15.4439 10.6811 15.1739 10.5098 14.9582H11.951V15.8603ZM16.8675 15.8603H12.422V14.9582H16.8675V15.8603ZM2.47105 8.47577H16.8675V14.4824H12.2454H12.1865H2.47105V8.47577Z" fill="#2B2B2B"/>
</svg>
